<svg xmlns="http://www.w3.org/2000/svg" viewBox="0 0 512 512">
  <defs>
    <linearGradient id="g" x1="70" y1="60" x2="440" y2="450" gradientUnits="userSpaceOnUse">
      <stop stop-color="#9b7cff"/><stop offset=".5" stop-color="#5b7cff"/><stop offset="1" stop-color="#20d9ff"/>
    </linearGradient>
    <filter id="glow"><feGaussianBlur stdDeviation="10" result="b"/><feMerge><feMergeNode in="b"/><feMergeNode in="SourceGraphic"/></feMerge></filter>
  </defs>
  <rect x="18" y="18" width="476" height="476" rx="120" fill="#07101f" stroke="#5d5cff" stroke-width="12"/>
  <path d="M132 388 239 116c8-20 36-20 44 0l101 272h-67l-28-82H216l-30 82zm105-142h34l-17-52z" fill="url(#g)" filter="url(#glow)"/>
  <path d="M102 342c54 40 133 53 215 34 55-13 87-36 105-59" fill="none" stroke="#23d8ff" stroke-width="22" stroke-linecap="round"/>
  <path d="M367 126l9 27 27 9-27 9-9 27-9-27-27-9 27-9z" fill="#fff"/>
</svg>
